<mxfile host="app.diagrams.net" modified="2022-06-07T18:11:56.887Z" agent="5.0 (Macintosh; Intel Mac OS X 10_15_7) AppleWebKit/537.36 (KHTML, like Gecko) Chrome/101.0.4951.64 Safari/537.36" etag="DHJmivCyDhQNl7fuZqdE" version="19.0.1" type="github">
  <diagram id="rzBOHS2imSivp7Q6g7ge" name="Page-1">
    <mxGraphModel dx="937" dy="549" grid="1" gridSize="10" guides="1" tooltips="1" connect="1" arrows="1" fold="1" page="1" pageScale="1" pageWidth="2336" pageHeight="1654" background="none" math="0" shadow="0">
      <root>
        <mxCell id="0" />
        <mxCell id="1" parent="0" />
        <mxCell id="j9mZeKwOuy3LwzMowdbu-10" value="" style="rounded=0;whiteSpace=wrap;html=1;dashed=1;fillColor=none;strokeColor=#FF9933;" parent="1" vertex="1">
          <mxGeometry x="590" y="128" width="553" height="50" as="geometry" />
        </mxCell>
        <mxCell id="j9mZeKwOuy3LwzMowdbu-2" value="" style="sketch=0;points=[[0,0,0],[0.25,0,0],[0.5,0,0],[0.75,0,0],[1,0,0],[0,1,0],[0.25,1,0],[0.5,1,0],[0.75,1,0],[1,1,0],[0,0.25,0],[0,0.5,0],[0,0.75,0],[1,0.25,0],[1,0.5,0],[1,0.75,0]];outlineConnect=0;fontColor=#232F3E;gradientColor=#945DF2;gradientDirection=north;fillColor=#5A30B5;strokeColor=#ffffff;dashed=0;verticalLabelPosition=bottom;verticalAlign=top;align=center;html=1;fontSize=12;fontStyle=0;aspect=fixed;shape=mxgraph.aws4.resourceIcon;resIcon=mxgraph.aws4.api_gateway;" parent="1" vertex="1">
          <mxGeometry x="834" y="36" width="60" height="60" as="geometry" />
        </mxCell>
        <mxCell id="j9mZeKwOuy3LwzMowdbu-3" value="creating" style="rounded=0;whiteSpace=wrap;html=1;" parent="1" vertex="1">
          <mxGeometry x="603" y="140" width="80" height="21" as="geometry" />
        </mxCell>
        <mxCell id="j9mZeKwOuy3LwzMowdbu-4" value="publishing" style="rounded=0;whiteSpace=wrap;html=1;" parent="1" vertex="1">
          <mxGeometry x="723" y="140" width="70" height="21" as="geometry" />
        </mxCell>
        <mxCell id="j9mZeKwOuy3LwzMowdbu-5" value="securing" style="rounded=0;whiteSpace=wrap;html=1;" parent="1" vertex="1">
          <mxGeometry x="833" y="140" width="70" height="21" as="geometry" />
        </mxCell>
        <mxCell id="j9mZeKwOuy3LwzMowdbu-6" value="maintaining" style="rounded=0;whiteSpace=wrap;html=1;" parent="1" vertex="1">
          <mxGeometry x="933" y="140" width="70" height="21" as="geometry" />
        </mxCell>
        <mxCell id="j9mZeKwOuy3LwzMowdbu-7" value="monitoring" style="rounded=0;whiteSpace=wrap;html=1;" parent="1" vertex="1">
          <mxGeometry x="1063" y="140" width="70" height="21" as="geometry" />
        </mxCell>
        <mxCell id="qNnacVsJ2TZ5Um2_h7-j-1" value="Stateless" style="rounded=0;whiteSpace=wrap;html=1;fillColor=none;strokeColor=#FF9933;" parent="1" vertex="1">
          <mxGeometry x="149" y="447" width="80" height="21" as="geometry" />
        </mxCell>
        <mxCell id="qNnacVsJ2TZ5Um2_h7-j-7" value="Apis" style="ellipse;whiteSpace=wrap;html=1;dashed=1;strokeColor=#FF9933;fillColor=none;" parent="1" vertex="1">
          <mxGeometry x="822" y="220" width="100" height="52" as="geometry" />
        </mxCell>
        <mxCell id="qNnacVsJ2TZ5Um2_h7-j-8" value="REST" style="rounded=0;whiteSpace=wrap;html=1;" parent="1" vertex="1">
          <mxGeometry x="57" y="514" width="80" height="21" as="geometry" />
        </mxCell>
        <mxCell id="qNnacVsJ2TZ5Um2_h7-j-9" value="HTTP" style="rounded=0;whiteSpace=wrap;html=1;" parent="1" vertex="1">
          <mxGeometry x="279" y="514" width="70" height="21" as="geometry" />
        </mxCell>
        <mxCell id="qNnacVsJ2TZ5Um2_h7-j-10" value="Routes and Methods&amp;nbsp;" style="rounded=0;whiteSpace=wrap;html=1;" parent="1" vertex="1">
          <mxGeometry x="258" y="566" width="140" height="40" as="geometry" />
        </mxCell>
        <mxCell id="qNnacVsJ2TZ5Um2_h7-j-11" value="&lt;div style=&quot;text-align: left&quot;&gt;&lt;ul&gt;&lt;li&gt;Integrated with Backend &lt;b&gt;HTTP endpoints&lt;/b&gt;&lt;/li&gt;&lt;li&gt;&lt;span&gt;Integrated with Lamda functions&lt;/span&gt;&lt;/li&gt;&lt;/ul&gt;&lt;/div&gt;" style="rounded=0;whiteSpace=wrap;html=1;" parent="1" vertex="1">
          <mxGeometry x="242" y="637" width="172" height="70" as="geometry" />
        </mxCell>
        <mxCell id="qNnacVsJ2TZ5Um2_h7-j-12" value="websocket" style="rounded=0;whiteSpace=wrap;html=1;" parent="1" vertex="1">
          <mxGeometry x="470" y="493" width="70" height="21" as="geometry" />
        </mxCell>
        <mxCell id="e3F0U84aLfVKptTIg71--1" value="" style="shape=curlyBracket;whiteSpace=wrap;html=1;rounded=1;flipH=1;direction=north;" parent="1" vertex="1">
          <mxGeometry x="590" y="190" width="563" height="20" as="geometry" />
        </mxCell>
        <mxCell id="e3F0U84aLfVKptTIg71--4" value="Supports" style="ellipse;whiteSpace=wrap;html=1;dashed=1;strokeColor=#FF9933;fillColor=none;" parent="1" vertex="1">
          <mxGeometry x="289" y="350" width="100" height="52" as="geometry" />
        </mxCell>
        <mxCell id="e3F0U84aLfVKptTIg71--10" value="" style="line;strokeWidth=2;direction=south;html=1;" parent="1" vertex="1">
          <mxGeometry x="864" y="97" width="1" height="30" as="geometry" />
        </mxCell>
        <mxCell id="e3F0U84aLfVKptTIg71--11" value="StateFull" style="rounded=0;whiteSpace=wrap;html=1;fillColor=none;strokeColor=#FF9933;" parent="1" vertex="1">
          <mxGeometry x="463" y="441" width="80" height="21" as="geometry" />
        </mxCell>
        <mxCell id="e3F0U84aLfVKptTIg71--12" value="" style="line;strokeWidth=2;direction=south;html=1;" parent="1" vertex="1">
          <mxGeometry x="188" y="468" width="1" height="30" as="geometry" />
        </mxCell>
        <mxCell id="e3F0U84aLfVKptTIg71--19" value="" style="shape=partialRectangle;whiteSpace=wrap;html=1;bottom=1;right=1;left=1;top=0;fillColor=none;routingCenterX=-0.5;rotation=-180;direction=east;" parent="1" vertex="1">
          <mxGeometry x="86" y="498" width="234" height="15" as="geometry" />
        </mxCell>
        <mxCell id="e3F0U84aLfVKptTIg71--21" value="" style="line;strokeWidth=2;direction=south;html=1;" parent="1" vertex="1">
          <mxGeometry x="315" y="536" width="1" height="30" as="geometry" />
        </mxCell>
        <mxCell id="e3F0U84aLfVKptTIg71--22" value="" style="line;strokeWidth=2;direction=south;html=1;" parent="1" vertex="1">
          <mxGeometry x="316" y="607" width="1" height="30" as="geometry" />
        </mxCell>
        <mxCell id="e3F0U84aLfVKptTIg71--23" value="HTTP Methods" style="rounded=0;whiteSpace=wrap;html=1;" parent="1" vertex="1">
          <mxGeometry x="30" y="567" width="140" height="40" as="geometry" />
        </mxCell>
        <mxCell id="e3F0U84aLfVKptTIg71--24" value="&lt;div style=&quot;text-align: left&quot;&gt;&lt;ul&gt;&lt;li&gt;Lambda Function&lt;/li&gt;&lt;li&gt;AWS Services&lt;/li&gt;&lt;li&gt;&lt;b&gt;HTTP Endpoint&lt;/b&gt;&lt;/li&gt;&lt;/ul&gt;&lt;/div&gt;" style="rounded=0;whiteSpace=wrap;html=1;" parent="1" vertex="1">
          <mxGeometry x="14" y="638" width="146" height="72" as="geometry" />
        </mxCell>
        <mxCell id="e3F0U84aLfVKptTIg71--25" value="" style="line;strokeWidth=2;direction=south;html=1;" parent="1" vertex="1">
          <mxGeometry x="87" y="537" width="1" height="30" as="geometry" />
        </mxCell>
        <mxCell id="e3F0U84aLfVKptTIg71--26" value="" style="line;strokeWidth=2;direction=south;html=1;" parent="1" vertex="1">
          <mxGeometry x="88" y="608" width="1" height="30" as="geometry" />
        </mxCell>
        <mxCell id="RHQa-X3_apYEFBSFGdYx-1" value="" style="endArrow=none;html=1;rounded=0;" parent="1" edge="1">
          <mxGeometry width="50" height="50" relative="1" as="geometry">
            <mxPoint x="181" y="446" as="sourcePoint" />
            <mxPoint x="292" y="386" as="targetPoint" />
          </mxGeometry>
        </mxCell>
        <mxCell id="RHQa-X3_apYEFBSFGdYx-2" value="" style="endArrow=none;html=1;rounded=0;" parent="1" edge="1">
          <mxGeometry width="50" height="50" relative="1" as="geometry">
            <mxPoint x="389" y="380" as="sourcePoint" />
            <mxPoint x="490" y="440" as="targetPoint" />
          </mxGeometry>
        </mxCell>
        <mxCell id="3u_sAwuGoXgxyQlECYIR-2" value="" style="line;strokeWidth=2;direction=south;html=1;" vertex="1" parent="1">
          <mxGeometry x="502.5" y="463" width="1" height="30" as="geometry" />
        </mxCell>
        <mxCell id="3u_sAwuGoXgxyQlECYIR-4" value="" style="shape=curlyBracket;whiteSpace=wrap;html=1;rounded=1;strokeColor=#FF9933;fillColor=none;" vertex="1" parent="1">
          <mxGeometry x="541" y="478" width="19" height="51" as="geometry" />
        </mxCell>
        <mxCell id="3u_sAwuGoXgxyQlECYIR-5" value="" style="shape=curlyBracket;whiteSpace=wrap;html=1;rounded=1;strokeColor=#FF9933;fillColor=none;rotation=-180;" vertex="1" parent="1">
          <mxGeometry x="616" y="478" width="15" height="52" as="geometry" />
        </mxCell>
        <mxCell id="3u_sAwuGoXgxyQlECYIR-6" value="routes&lt;br&gt;&lt;br&gt;route keys" style="text;html=1;align=left;verticalAlign=middle;resizable=0;points=[];autosize=1;strokeColor=none;fillColor=none;" vertex="1" parent="1">
          <mxGeometry x="560" y="478" width="70" height="50" as="geometry" />
        </mxCell>
        <mxCell id="3u_sAwuGoXgxyQlECYIR-7" value="integrate with backed &lt;br&gt;&lt;b&gt;HTTP endpoint&lt;/b&gt;" style="text;html=1;align=left;verticalAlign=middle;resizable=0;points=[];autosize=1;strokeColor=none;fillColor=none;" vertex="1" parent="1">
          <mxGeometry x="640" y="488" width="130" height="30" as="geometry" />
        </mxCell>
        <mxCell id="3u_sAwuGoXgxyQlECYIR-10" value="&lt;ul&gt;&lt;li&gt;Real-time feeds&lt;/li&gt;&lt;li&gt;Real-time multimedia player&lt;/li&gt;&lt;li&gt;Rea-time multimedia chat&lt;/li&gt;&lt;li&gt;Real-time location App&lt;/li&gt;&lt;/ul&gt;" style="text;html=1;align=left;verticalAlign=middle;resizable=0;points=[];autosize=1;strokeColor=#FF9933;fillColor=none;" vertex="1" parent="1">
          <mxGeometry x="470" y="567" width="200" height="90" as="geometry" />
        </mxCell>
        <mxCell id="3u_sAwuGoXgxyQlECYIR-11" value="Examples" style="text;html=1;align=center;verticalAlign=middle;resizable=0;points=[];autosize=1;strokeColor=none;fillColor=none;" vertex="1" parent="1">
          <mxGeometry x="458" y="545" width="70" height="20" as="geometry" />
        </mxCell>
        <mxCell id="3u_sAwuGoXgxyQlECYIR-12" value="" style="endArrow=none;html=1;rounded=0;" edge="1" parent="1">
          <mxGeometry width="50" height="50" relative="1" as="geometry">
            <mxPoint x="374" y="354" as="sourcePoint" />
            <mxPoint x="820" y="250" as="targetPoint" />
          </mxGeometry>
        </mxCell>
        <mxCell id="3u_sAwuGoXgxyQlECYIR-13" value="&lt;b&gt;HTTP Endpoint&lt;/b&gt;" style="rounded=0;whiteSpace=wrap;html=1;fillColor=none;strokeColor=#FF9933;" vertex="1" parent="1">
          <mxGeometry x="103" y="135" width="98" height="20" as="geometry" />
        </mxCell>
        <mxCell id="3u_sAwuGoXgxyQlECYIR-14" value="Edge-optimize" style="rounded=0;whiteSpace=wrap;html=1;" vertex="1" parent="1">
          <mxGeometry x="9" y="232" width="80" height="21" as="geometry" />
        </mxCell>
        <mxCell id="3u_sAwuGoXgxyQlECYIR-15" value="regional" style="rounded=0;whiteSpace=wrap;html=1;" vertex="1" parent="1">
          <mxGeometry x="319" y="232" width="70" height="21" as="geometry" />
        </mxCell>
        <mxCell id="3u_sAwuGoXgxyQlECYIR-16" value="" style="line;strokeWidth=2;direction=south;html=1;" vertex="1" parent="1">
          <mxGeometry x="140" y="186" width="1" height="30" as="geometry" />
        </mxCell>
        <mxCell id="3u_sAwuGoXgxyQlECYIR-17" value="" style="shape=partialRectangle;whiteSpace=wrap;html=1;bottom=1;right=1;left=1;top=0;fillColor=none;routingCenterX=-0.5;rotation=-180;direction=east;" vertex="1" parent="1">
          <mxGeometry x="38" y="216" width="313" height="15" as="geometry" />
        </mxCell>
        <mxCell id="3u_sAwuGoXgxyQlECYIR-18" value="Supported" style="rounded=0;whiteSpace=wrap;html=1;" vertex="1" parent="1">
          <mxGeometry x="102" y="163" width="80" height="21" as="geometry" />
        </mxCell>
        <mxCell id="3u_sAwuGoXgxyQlECYIR-19" value="" style="line;strokeWidth=2;direction=south;html=1;" vertex="1" parent="1">
          <mxGeometry x="184.5" y="216" width="20" height="19" as="geometry" />
        </mxCell>
        <mxCell id="3u_sAwuGoXgxyQlECYIR-20" value="private" style="rounded=0;whiteSpace=wrap;html=1;" vertex="1" parent="1">
          <mxGeometry x="161" y="235" width="70" height="21" as="geometry" />
        </mxCell>
        <mxCell id="3u_sAwuGoXgxyQlECYIR-23" value="" style="shape=curlyBracket;whiteSpace=wrap;html=1;rounded=1;strokeColor=#FF9933;fillColor=none;" vertex="1" parent="1">
          <mxGeometry x="205" y="133" width="12" height="24" as="geometry" />
        </mxCell>
        <mxCell id="3u_sAwuGoXgxyQlECYIR-24" value="" style="shape=curlyBracket;whiteSpace=wrap;html=1;rounded=1;strokeColor=#FF9933;fillColor=none;direction=west;" vertex="1" parent="1">
          <mxGeometry x="247" y="134" width="12" height="24" as="geometry" />
        </mxCell>
        <mxCell id="3u_sAwuGoXgxyQlECYIR-25" value="api-id" style="text;html=1;align=center;verticalAlign=middle;resizable=0;points=[];autosize=1;strokeColor=none;fillColor=none;" vertex="1" parent="1">
          <mxGeometry x="211" y="137" width="40" height="20" as="geometry" />
        </mxCell>
        <mxCell id="3u_sAwuGoXgxyQlECYIR-27" value="" style="shape=curlyBracket;whiteSpace=wrap;html=1;rounded=1;strokeColor=#FF9933;fillColor=none;" vertex="1" parent="1">
          <mxGeometry x="330" y="135" width="12" height="24" as="geometry" />
        </mxCell>
        <mxCell id="3u_sAwuGoXgxyQlECYIR-28" value="" style="shape=curlyBracket;whiteSpace=wrap;html=1;rounded=1;strokeColor=#FF9933;fillColor=none;direction=west;" vertex="1" parent="1">
          <mxGeometry x="369" y="136" width="12" height="24" as="geometry" />
        </mxCell>
        <mxCell id="3u_sAwuGoXgxyQlECYIR-29" value="region" style="text;html=1;align=center;verticalAlign=middle;resizable=0;points=[];autosize=1;strokeColor=none;fillColor=none;" vertex="1" parent="1">
          <mxGeometry x="331" y="138" width="50" height="20" as="geometry" />
        </mxCell>
        <mxCell id="3u_sAwuGoXgxyQlECYIR-30" value="&lt;b&gt;.&lt;/b&gt;executte-api&lt;b&gt;.&lt;/b&gt;" style="text;html=1;align=center;verticalAlign=middle;resizable=0;points=[];autosize=1;strokeColor=none;fillColor=none;" vertex="1" parent="1">
          <mxGeometry x="249" y="137" width="90" height="20" as="geometry" />
        </mxCell>
        <mxCell id="3u_sAwuGoXgxyQlECYIR-31" value=".amazonaws&lt;b&gt;.&lt;/b&gt;com" style="text;html=1;align=center;verticalAlign=middle;resizable=0;points=[];autosize=1;strokeColor=none;fillColor=none;" vertex="1" parent="1">
          <mxGeometry x="373" y="138" width="110" height="20" as="geometry" />
        </mxCell>
      </root>
    </mxGraphModel>
  </diagram>
</mxfile>
